<?xml version="1.0" standalone="no"?>
<!DOCTYPE svg PUBLIC "-//W3C//DTD SVG 20010904//EN"
 "http://www.w3.org/TR/2001/REC-SVG-20010904/DTD/svg10.dtd">
<svg version="1.0" xmlns="http://www.w3.org/2000/svg"
 width="1024.000000pt" height="1024.000000pt" viewBox="0 0 1024.000000 1024.000000"
 preserveAspectRatio="xMidYMid meet">
<metadata>
Created by potrace 1.14, written by Peter Selinger 2001-2017
</metadata>
<g transform="translate(0.000000,1024.000000) scale(0.100000,-0.100000)"
fill="#000000" stroke="none">
<path d="M1812 8258 c-8 -21 -18 -38 -23 -38 -5 0 -9 -8 -9 -17 0 -10 -18 -36
-40 -58 -41 -42 -50 -61 -26 -52 10 4 13 1 9 -8 -3 -10 -10 -12 -21 -6 -21 12
-193 -153 -185 -178 4 -13 3 -13 -5 -2 -8 11 -16 7 -40 -20 -79 -91 -153 -209
-131 -209 5 0 9 5 9 11 0 5 5 7 10 4 14 -9 -8 -37 -24 -32 -6 2 -22 -26 -35
-62 -29 -79 -37 -196 -21 -289 10 -61 77 -214 131 -302 75 -121 117 -223 167
-400 l10 -35 1 30 c1 32 -11 85 -57 265 -21 83 -48 152 -96 249 -93 186 -118
265 -114 357 2 50 -1 75 -9 78 -17 7 -4 47 27 81 15 17 39 49 53 71 14 23 43
58 64 79 33 32 35 36 13 30 -23 -7 -23 -7 -7 9 9 10 22 14 28 10 8 -5 9 -3 5
5 -5 8 -3 11 5 9 19 -4 152 132 169 172 11 26 15 29 20 16 5 -14 12 -9 36 26
54 74 106 185 102 215 -3 27 -4 27 -16 -9z m-142 -222 c0 -2 -8 -10 -17 -17
-16 -13 -17 -12 -4 4 13 16 21 21 21 13z m-47 -56 c-3 -12 -8 -19 -11 -16 -5
6 5 36 12 36 2 0 2 -9 -1 -20z m-26 -44 c-2 -6 -17 -11 -34 -12 l-31 -2 21 23
c16 16 26 20 35 12 7 -5 11 -15 9 -21z m-97 -71 c-7 -9 -15 -13 -17 -11 -7 7
7 26 19 26 6 0 6 -6 -2 -15z m-52 -45 c-7 -10 -14 -17 -17 -15 -4 4 18 35 25
35 2 0 -1 -9 -8 -20z m-37 -69 c-12 -12 -21 -17 -21 -11 0 15 34 52 38 41 2
-5 -6 -19 -17 -30z"/>
<path d="M1570 7940 c0 -5 5 -10 10 -10 6 0 10 5 10 10 0 6 -4 10 -10 10 -5 0
-10 -4 -10 -10z"/>
<path d="M1826 8163 c-6 -14 -5 -15 5 -6 7 7 10 15 7 18 -3 3 -9 -2 -12 -12z"/>
<path d="M1735 8000 c-3 -5 -1 -10 4 -10 6 0 11 5 11 10 0 6 -2 10 -4 10 -3 0
-8 -4 -11 -10z"/>
<path d="M1676 7873 c-6 -14 -5 -15 5 -6 7 7 10 15 7 18 -3 3 -9 -2 -12 -12z"/>
<path d="M2911 7834 c-12 -15 -21 -32 -21 -39 0 -6 -8 -19 -19 -29 -14 -13
-24 -14 -44 -7 -47 18 -50 -16 -7 -93 23 -40 29 -61 24 -80 -10 -42 10 -56 78
-56 81 0 112 18 141 83 35 77 39 110 19 155 -20 45 -37 63 -75 80 -44 19 -73
15 -96 -14z"/>
<path d="M1662 7830 c0 -14 2 -19 5 -12 2 6 2 18 0 25 -3 6 -5 1 -5 -13z"/>
<path d="M1632 7748 c-24 -81 -34 -127 -29 -144 4 -16 5 -15 6 4 0 12 10 55
21 94 19 71 21 110 2 46z"/>
<path d="M8438 7649 c-42 -41 -45 -46 -15 -25 20 15 42 24 47 21 6 -3 10 3 10
14 0 11 8 25 18 30 9 6 12 11 5 11 -6 0 -36 -23 -65 -51z"/>
<path d="M5483 7618 c-18 -13 -33 -31 -33 -41 0 -17 2 -17 22 -3 35 25 87 21
98 -6 5 -13 9 -17 9 -9 1 20 -39 81 -52 81 -7 0 -27 -10 -44 -22z"/>
<path d="M5230 7603 c8 -3 24 -10 35 -15 20 -9 20 -9 1 6 -11 9 -27 16 -35 15
-14 0 -14 -1 -1 -6z"/>
<path d="M1592 7560 c0 -14 2 -19 5 -12 2 6 2 18 0 25 -3 6 -5 1 -5 -13z"/>
<path d="M5525 7514 c-6 -2 -8 -27 -6 -55 l3 -52 -190 5 -190 4 -6 -29 c-12
-58 -8 -67 24 -67 17 0 30 3 30 8 0 4 98 4 217 1 120 -3 221 -3 225 0 4 3 2
25 -4 49 -10 38 -13 42 -43 42 -27 0 -33 5 -42 34 -6 20 -7 40 -1 50 9 16 3
19 -17 10z"/>
<path d="M8151 7479 c-2 -27 -41 -69 -64 -69 -19 0 -22 -6 -25 -43 l-2 -42
245 0 c241 0 246 0 241 20 -3 11 -6 30 -6 42 0 18 -8 24 -37 29 -21 4 -40 6
-42 5 -2 -2 -8 3 -12 11 -7 10 -9 9 -9 -5 0 -16 -11 -17 -137 -15 l-138 3 -6
40 c-3 22 -7 33 -8 24z m276 -135 c-3 -3 -12 -4 -19 -1 -8 3 -5 6 6 6 11 1 17
-2 13 -5z"/>
<path d="M1567 7449 c-13 -51 -25 -305 -17 -389 6 -74 7 -62 8 91 1 96 7 201
13 233 11 62 8 111 -4 65z"/>
<path d="M8073 7043 c-23 -3 -33 -10 -35 -26 -2 -15 -17 -29 -45 -42 -37 -18
-42 -24 -43 -55 0 -21 -10 -47 -25 -64 -22 -28 -22 -31 -7 -43 15 -12 14 -13
-6 -3 -12 6 -28 7 -35 3 -6 -4 -37 -8 -69 -8 -48 0 -55 2 -45 15 11 13 10 13
-6 1 -10 -8 -16 -20 -13 -27 5 -12 -34 -44 -54 -44 -17 0 -11 18 8 24 9 3 0 3
-20 0 -38 -5 -75 8 -93 33 -9 12 -16 12 -38 2 l-26 -12 -1 -1044 0 -1045 127
4 128 4 133 82 c74 45 137 82 141 82 9 0 103 -40 111 -47 3 -3 7 -30 10 -61
l5 -57 265 0 265 0 5 105 c5 87 6 95 10 50 3 -30 4 372 2 895 -2 522 -6 952
-10 955 -14 10 -36 56 -38 80 -3 31 -32 110 -46 127 -6 7 -28 18 -50 23 -21 6
-48 18 -58 27 -18 15 -18 17 -2 29 9 8 24 13 32 13 10 0 8 -3 -5 -9 -19 -7
-19 -8 5 -18 31 -12 34 -9 26 23 -6 24 -10 25 -65 23 l-59 -3 4 -50 c3 -27 7
-57 8 -65 2 -9 -4 -22 -12 -30 -14 -13 -15 -12 -9 2 4 12 2 15 -9 11 -7 -3
-14 -8 -14 -12 0 -3 -33 -5 -73 -5 -39 1 -98 2 -130 3 -32 1 -56 5 -53 10 4 5
-2 7 -12 4 -17 -4 -18 1 -11 54 4 32 8 65 10 73 4 16 -21 20 -78 13z m32 -133
c3 -5 1 -10 -4 -10 -6 0 -11 5 -11 10 0 6 2 10 4 10 3 0 8 -4 11 -10z m-535
-110 c0 -5 -8 -10 -17 -10 -15 0 -16 2 -3 10 19 12 20 12 20 0z m114 -69 c4
-5 -3 -7 -14 -4 -23 6 -26 13 -6 13 8 0 17 -4 20 -9z"/>
<path d="M5020 7016 c0 -28 -15 -43 -24 -24 -3 7 -3 -3 0 -22 3 -19 6 -47 7
-62 1 -14 3 -25 4 -24 1 1 14 19 29 41 18 28 21 35 7 23 -24 -22 -40 -24 -23
-3 11 13 10 14 -5 9 -15 -6 -16 -4 -6 15 7 12 15 19 20 17 4 -3 5 8 3 25 -5
35 -12 38 -12 5z"/>
<path d="M5070 7030 c0 -12 8 -12 35 0 18 8 17 9 -7 9 -16 1 -28 -3 -28 -9z"/>
<path d="M5206 7025 c4 -8 10 -12 15 -9 14 8 10 24 -6 24 -9 0 -12 -6 -9 -15z"/>
<path d="M5545 6960 c0 -44 3 -59 13 -55 6 2 12 0 12 -5 0 -5 8 -7 18 -5 10 2
34 0 53 -4 26 -5 39 -2 56 13 l22 19 -36 41 c-28 31 -45 41 -68 41 -16 0 -34
5 -38 10 -6 6 -10 5 -14 -4 -4 -9 -8 -10 -12 -3 -4 6 -7 -16 -6 -48z"/>
<path d="M5102 6942 c13 -9 27 -17 33 -18 26 -3 29 -5 18 -12 -9 -6 10 -30 61
-80 41 -40 77 -72 79 -72 3 0 8 7 11 16 6 15 4 15 -11 3 -15 -12 -16 -12 -9 6
4 11 4 16 0 13 -10 -10 -84 63 -77 76 3 6 3 8 -2 4 -9 -9 -45 9 -45 23 0 6 8
6 21 -1 11 -7 23 -10 25 -7 2 2 -7 10 -21 17 -26 14 -33 30 -13 30 6 0 9 2 6
5 -3 3 -18 1 -33 -5 -21 -8 -26 -8 -22 2 3 8 -5 14 -20 14 l-25 2 24 -16z"/>
<path d="M5195 6930 c-3 -6 2 -13 12 -17 10 -3 28 -15 41 -26 12 -11 22 -16
22 -11 0 5 34 7 80 4 45 -3 94 0 112 6 26 8 15 10 -68 10 -98 -1 -199 18 -188
35 3 5 3 9 0 9 -3 0 -8 -5 -11 -10z"/>
<path d="M5773 6933 c9 -2 25 -2 35 0 9 3 1 5 -18 5 -19 0 -27 -2 -17 -5z"/>
<path d="M5855 6930 c27 -12 43 -12 25 0 -8 5 -22 9 -30 9 -10 0 -8 -3 5 -9z"/>
<path d="M2995 6915 c-63 -13 -72 -19 -126 -81 -24 -28 -66 -77 -94 -109 -64
-74 -70 -85 -50 -85 9 0 14 4 11 8 -2 4 10 6 27 4 l32 -4 1 -107 c0 -100 2
-111 34 -176 18 -39 34 -73 34 -76 1 -3 9 -13 18 -23 17 -16 19 -16 40 3 12
12 26 21 31 21 26 0 72 49 99 105 24 52 35 64 59 69 17 3 29 12 29 21 0 9 5
13 10 10 6 -3 10 4 10 18 0 16 14 35 41 57 76 61 93 168 40 252 -51 80 -143
115 -246 93z"/>
<path d="M5810 6910 c26 -6 29 -8 11 -9 -30 -1 -25 -6 14 -15 22 -5 26 -4 15
4 -13 9 -13 10 0 10 13 0 13 1 0 10 -8 5 -28 9 -45 9 -30 -2 -30 -2 5 -9z"/>
<path d="M1571 6894 c0 -11 3 -14 6 -6 3 7 2 16 -1 19 -3 4 -6 -2 -5 -13z"/>
<path d="M5506 6903 c5 -5 12 -12 16 -18 4 -6 8 -2 8 8 0 9 -7 17 -17 17 -9 0
-12 -3 -7 -7z"/>
<path d="M5710 6900 c0 -12 8 -12 35 0 18 8 17 9 -7 9 -16 1 -28 -3 -28 -9z"/>
<path d="M5950 6890 c8 -5 20 -10 25 -10 6 0 3 5 -5 10 -8 5 -19 10 -25 10 -5
0 -3 -5 5 -10z"/>
<path d="M5220 6880 c0 -6 10 -21 21 -33 12 -12 19 -15 15 -7 -3 8 -9 23 -12
33 -7 18 -24 24 -24 7z"/>
<path d="M1581 6844 c0 -11 3 -14 6 -6 3 7 2 16 -1 19 -3 4 -6 -2 -5 -13z"/>
<path d="M5271 6834 c0 -11 3 -14 6 -6 3 7 2 16 -1 19 -3 4 -6 -2 -5 -13z"/>
<path d="M6219 6758 c-1 -7 -1 -18 0 -25 1 -6 -4 -15 -10 -19 -8 -5 -10 -3 -4
7 6 11 5 12 -6 2 -17 -16 -869 -19 -869 -3 0 6 -4 10 -9 10 -5 0 -7 -8 -4 -18
2 -10 -10 -47 -26 -82 -17 -36 -31 -78 -31 -93 0 -34 -45 -126 -65 -134 -8 -3
-15 -9 -15 -13 0 -4 -21 -44 -46 -89 l-46 -81 22 -137 c11 -76 28 -170 36
-210 23 -120 22 -128 -36 -159 -46 -25 -50 -30 -45 -58 2 -17 9 -116 15 -221
17 -319 31 -488 44 -525 10 -31 16 -36 55 -41 34 -4 44 -2 48 10 3 9 18 50 33
91 16 41 43 116 62 165 l33 90 144 3 c145 4 191 12 191 33 0 6 24 71 54 143
29 72 64 156 76 186 l22 55 194 0 194 -1 0 563 c0 310 -2 563 -5 563 -3 0 -6
-6 -6 -12z m-37 -1066 c3 -11 0 -19 -7 -19 -7 0 -10 8 -7 19 2 10 6 18 7 18 1
0 5 -8 7 -18z m-149 -29 c-29 -2 -77 -2 -105 0 -29 2 -6 3 52 3 58 0 81 -1 53
-3z m-726 -435 c-3 -8 -6 -5 -6 6 -1 11 2 17 5 13 3 -3 4 -12 1 -19z m30 0
c-3 -8 -6 -5 -6 6 -1 11 2 17 5 13 3 -3 4 -12 1 -19z m-127 -338 c0 -5 -4 -10
-10 -10 -5 0 -10 5 -10 10 0 6 5 10 10 10 6 0 10 -4 10 -10z"/>
<path d="M9322 6743 c-41 -36 -99 -134 -107 -183 -9 -53 17 -140 54 -179 54
-58 102 -37 171 74 45 73 27 237 -34 298 -24 24 -47 21 -84 -10z"/>
<path d="M9595 6618 c-2 -7 -9 -32 -15 -55 -6 -26 -29 -62 -58 -95 -172 -192
-240 -322 -277 -533 -16 -90 -61 -212 -107 -295 -17 -30 -75 -120 -128 -200
-100 -149 -136 -216 -146 -273 -6 -28 -3 -27 21 18 35 65 55 86 74 81 9 -2 32
-7 53 -10 30 -6 42 -15 69 -59 18 -29 36 -54 39 -57 3 -3 13 -17 23 -32 10
-16 21 -28 26 -28 4 0 13 24 19 53 7 28 18 82 26 119 25 113 36 213 51 438 8
118 15 227 15 242 0 23 5 28 33 33 29 6 38 2 65 -24 36 -37 72 -40 113 -11 22
16 33 19 48 10 89 -47 241 70 241 185 0 32 -2 35 -30 35 -36 0 -79 -21 -131
-61 -20 -16 -40 -29 -43 -29 -3 0 -6 23 -6 50 0 53 -19 112 -47 142 -15 16
-15 18 0 18 9 0 19 -4 22 -10 3 -5 31 -10 60 -10 100 0 194 52 226 126 37 82
-8 119 -136 112 -41 -2 -75 -1 -75 1 0 3 10 25 22 49 l21 45 -22 19 c-27 21
-40 23 -46 6z m-117 -300 c16 -16 15 -31 0 -25 -7 2 -21 0 -30 -5 -13 -6 -18
-5 -18 5 0 13 19 37 30 37 3 0 11 -5 18 -12z m46 4 c3 -5 -1 -9 -9 -9 -8 0
-12 4 -9 9 3 4 7 8 9 8 2 0 6 -4 9 -8z m-453 -845 c-10 -9 -11 -8 -5 6 3 10 9
15 12 12 3 -3 0 -11 -7 -18z m-36 -67 c-9 -18 -19 -30 -21 -27 -3 2 3 18 13
35 23 40 29 33 8 -8z"/>
<path d="M9120 6288 c-68 -67 -97 -175 -67 -254 18 -46 66 -102 95 -109 22 -5
32 0 63 34 66 71 72 166 17 276 -20 40 -56 85 -68 85 -3 0 -21 -15 -40 -32z"/>
<path d="M840 6234 l-45 -13 48 1 c31 1 47 6 47 15 0 7 -1 12 -2 12 -2 -1 -23
-8 -48 -15z"/>
<path d="M2855 6223 c-21 -32 -10 -57 26 -61 18 -2 27 4 37 25 15 33 16 63 2
63 -5 0 -10 -5 -10 -12 0 -9 -3 -9 -12 0 -17 17 -24 15 -43 -15z"/>
<path d="M3172 6081 c-11 -7 -9 -18 12 -57 14 -27 29 -64 32 -82 9 -46 24 -50
54 -14 15 18 30 32 33 32 17 0 4 -77 -22 -130 -26 -52 -29 -67 -27 -144 2 -74
5 -88 26 -111 16 -17 26 -43 32 -87 9 -70 49 -256 108 -508 135 -575 131 -551
102 -610 -15 -30 -36 -45 -158 -105 -158 -79 -495 -243 -749 -366 -93 -45
-271 -130 -394 -190 -122 -60 -224 -109 -226 -109 -3 0 -448 -219 -726 -358
-6 -3 -23 52 -34 108 -5 24 -65 260 -85 330 -5 19 -28 107 -50 195 -53 209
-88 334 -89 315 0 -8 4 -69 9 -135 9 -118 44 -302 102 -543 30 -128 29 -155
-10 -147 -15 3 -16 -5 -12 -59 2 -33 6 -49 8 -34 2 18 11 28 29 33 33 8 37 3
58 -70 9 -33 22 -66 28 -73 14 -18 122 -72 142 -72 9 0 22 -15 30 -34 16 -39
33 -50 230 -156 117 -63 218 -120 229 -129 6 -4 63 -35 126 -68 63 -33 153
-82 200 -108 47 -27 117 -65 156 -86 39 -21 127 -70 195 -108 298 -170 332
-180 444 -125 33 16 62 31 65 34 3 3 59 33 125 66 66 34 223 114 348 179 125
64 265 136 310 158 77 39 82 44 85 77 2 19 1 54 -3 77 -6 41 -7 42 -28 29 -46
-29 -1001 -506 -1013 -506 -7 0 -14 -6 -16 -12 -4 -10 -18 -7 -55 11 -29 13
-56 20 -64 16 -7 -5 -10 -4 -6 3 7 10 -136 95 -160 95 -7 0 -10 3 -8 7 6 10
-138 85 -155 81 -8 -1 -12 0 -8 5 9 8 -5 19 -84 63 -62 34 -73 37 -62 19 4 -7
3 -8 -5 -4 -6 4 -9 12 -6 17 4 5 0 9 -9 9 -8 0 -16 4 -18 9 -1 4 -55 37 -118
71 -125 69 -250 138 -345 191 -33 18 -107 58 -165 89 -105 57 -148 96 -137
123 3 9 50 37 104 63 54 26 157 75 228 109 72 35 297 144 500 242 204 99 471
229 595 289 124 60 347 170 495 244 238 119 270 138 273 160 8 73 15 94 47
124 33 32 102 72 118 68 4 -1 7 26 7 59 0 50 -2 59 -13 50 -8 -6 -36 -15 -64
-20 -76 -15 -77 -15 -86 -26 -5 -6 -7 -4 -4 5 2 8 10 14 16 13 15 -4 14 6 -4
23 -8 9 -15 12 -15 7 0 -4 -9 9 -19 29 -11 20 -31 89 -45 154 -14 66 -43 202
-66 304 -22 102 -50 235 -62 295 -11 61 -29 124 -40 142 -16 28 -18 43 -12
120 5 72 3 95 -10 121 -9 17 -16 47 -16 67 0 19 -4 35 -10 35 -5 0 -10 9 -10
19 0 26 -30 141 -43 166 -6 11 -17 25 -26 32 -18 14 -90 17 -109 4z m-1703
-2970 c12 -11 32 -27 44 -36 20 -14 19 -14 -9 1 -42 22 -81 54 -68 54 6 0 21
-9 33 -19z m371 -211 c0 -4 18 -13 40 -20 22 -7 40 -17 40 -21 0 -4 12 -12 28
-18 36 -14 93 -47 106 -62 6 -7 -16 3 -49 21 -33 18 -94 51 -135 73 -82 43
-134 82 -67 51 20 -10 37 -21 37 -24z m357 -196 c-6 -6 -47 9 -47 17 0 5 11 3
25 -3 14 -6 24 -13 22 -14z m138 -74 c3 -5 1 -10 -4 -10 -6 0 -11 5 -11 10 0
6 2 10 4 10 3 0 8 -4 11 -10z m40 -20 c3 -6 -1 -7 -9 -4 -18 7 -21 14 -7 14 6
0 13 -4 16 -10z"/>
<path d="M3009 5973 c-13 -17 -13 -17 6 -3 11 8 22 16 24 17 2 2 0 3 -6 3 -6
0 -17 -8 -24 -17z"/>
<path d="M640 5919 c0 -5 5 -7 10 -4 6 3 10 8 10 11 0 2 -4 4 -10 4 -5 0 -10
-5 -10 -11z"/>
<path d="M2868 5923 c7 -3 16 -2 19 1 4 3 -2 6 -13 5 -11 0 -14 -3 -6 -6z"/>
<path d="M2825 5910 c-3 -5 -2 -10 4 -10 5 0 13 5 16 10 3 6 2 10 -4 10 -5 0
-13 -4 -16 -10z"/>
<path d="M621 5818 c0 -14 -4 -35 -7 -45 -5 -17 -5 -17 6 0 6 10 9 30 7 45
l-4 27 -2 -27z"/>
<path d="M2660 5830 c-9 -6 -10 -10 -3 -10 6 0 15 5 18 10 8 12 4 12 -15 0z"/>
<path d="M942 5805 c0 -16 2 -22 5 -12 2 9 2 23 0 30 -3 6 -5 -1 -5 -18z"/>
<path d="M2423 5714 c-18 -8 -33 -16 -33 -19 0 -7 60 16 66 26 6 11 7 11 -33
-7z"/>
<path d="M2518 5693 c7 -3 16 -2 19 1 4 3 -2 6 -13 5 -11 0 -14 -3 -6 -6z"/>
<path d="M2335 5670 c-3 -5 -1 -10 4 -10 6 0 11 5 11 10 0 6 -2 10 -4 10 -3 0
-8 -4 -11 -10z"/>
<path d="M3181 5654 c0 -11 3 -14 6 -6 3 7 2 16 -1 19 -3 4 -6 -2 -5 -13z"/>
<path d="M3011 5564 c0 -11 3 -14 6 -6 3 7 2 16 -1 19 -3 4 -6 -2 -5 -13z"/>
<path d="M2038 5523 c7 -3 16 -2 19 1 4 3 -2 6 -13 5 -11 0 -14 -3 -6 -6z"/>
<path d="M972 5460 c0 -14 2 -19 5 -12 2 6 2 18 0 25 -3 6 -5 1 -5 -13z"/>
<path d="M1780 5400 c-9 -6 -10 -10 -3 -10 6 0 15 5 18 10 8 12 4 12 -15 0z"/>
<path d="M3266 5395 c-3 -8 -16 -20 -28 -25 -15 -5 -17 -9 -7 -9 17 -1 56 36
47 44 -3 3 -8 -1 -12 -10z"/>
<path d="M1708 5363 c6 -2 18 -2 25 0 6 3 1 5 -13 5 -14 0 -19 -2 -12 -5z"/>
<path d="M1660 5340 c-8 -5 -12 -12 -9 -15 4 -3 12 1 19 10 14 17 11 19 -10 5z"/>
<path d="M2330 5320 c-8 -5 -12 -11 -10 -14 3 -2 14 2 24 10 22 15 10 19 -14
4z"/>
<path d="M2714 5263 c-66 -32 -163 -77 -215 -101 l-95 -44 32 -126 c18 -70 58
-235 89 -367 32 -132 59 -241 60 -243 1 -1 46 19 101 44 54 26 128 60 164 76
144 67 190 91 190 102 -1 6 -7 36 -15 66 -31 123 -47 189 -67 270 -11 47 -24
99 -29 115 -5 17 -20 75 -33 130 -29 120 -35 135 -50 135 -6 0 -66 -26 -132
-57z"/>
<path d="M1340 5275 c0 -14 4 -25 9 -25 15 0 23 18 11 25 -6 4 -8 11 -5 16 4
5 1 9 -4 9 -6 0 -11 -11 -11 -25z"/>
<path d="M6206 5277 c-18 -13 -19 -42 -21 -793 -1 -428 0 -799 3 -823 5 -43 5
-43 39 -38 68 11 63 -53 61 846 l-3 816 -30 3 c-16 2 -38 -3 -49 -11z"/>
<path d="M542 5255 c0 -16 2 -22 5 -12 2 9 2 23 0 30 -3 6 -5 -1 -5 -18z"/>
<path d="M2175 5250 c-8 -13 5 -13 25 0 13 8 13 10 -2 10 -9 0 -20 -4 -23 -10z"/>
<path d="M1425 5230 c-16 -7 -17 -9 -3 -9 9 -1 20 4 23 9 7 11 7 11 -20 0z"/>
<path d="M931 5214 c0 -11 3 -14 6 -6 3 7 2 16 -1 19 -3 4 -6 -2 -5 -13z"/>
<path d="M3102 5200 c0 -14 2 -19 5 -12 2 6 2 18 0 25 -3 6 -5 1 -5 -13z"/>
<path d="M5990 5130 c-20 -20 -20 -33 -20 -802 0 -455 4 -789 9 -797 8 -12 18
-13 47 -5 33 8 39 14 46 44 8 36 8 1532 0 1563 -6 24 -57 22 -82 -3z"/>
<path d="M1945 5130 c-3 -6 1 -7 9 -4 18 7 21 14 7 14 -6 0 -13 -4 -16 -10z"/>
<path d="M1090 5070 c-19 -11 -31 -19 -27 -20 11 0 67 29 67 35 0 7 -1 7 -40
-15z"/>
<path d="M1768 5053 c7 -3 16 -2 19 1 4 3 -2 6 -13 5 -11 0 -14 -3 -6 -6z"/>
<path d="M817 4990 c-50 -43 -56 -92 -26 -201 26 -98 49 -218 44 -233 -11 -36
-14 -116 -5 -116 5 0 9 3 8 8 -1 4 2 25 6 47 l8 40 13 -35 c7 -20 16 -51 20
-70 6 -29 5 -33 -6 -24 -8 6 -24 11 -36 12 -18 0 -23 -7 -32 -62 -6 -34 -11
-78 -11 -97 0 -19 -5 -52 -10 -74 -5 -22 -14 -92 -20 -155 -6 -63 -12 -127
-14 -143 -2 -15 1 -30 6 -33 5 -3 59 -3 119 1 l109 7 -1 27 c-1 53 -7 56 -109
56 l-95 0 1 35 c1 19 4 70 8 112 7 74 9 77 37 83 16 4 48 16 72 28 l43 22 -2
95 c-2 77 -13 136 -57 315 -72 287 -72 291 -47 339 11 22 18 41 16 43 -2 3
-20 -10 -39 -27z"/>
<path d="M3151 5004 c0 -11 3 -14 6 -6 3 7 2 16 -1 19 -3 4 -6 -2 -5 -13z"/>
<path d="M501 4994 c0 -11 3 -14 6 -6 3 7 2 16 -1 19 -3 4 -6 -2 -5 -13z"/>
<path d="M950 4999 c0 -5 5 -7 10 -4 6 3 10 8 10 11 0 2 -4 4 -10 4 -5 0 -10
-5 -10 -11z"/>
<path d="M3161 4964 c0 -11 3 -14 6 -6 3 7 2 16 -1 19 -3 4 -6 -2 -5 -13z"/>
<path d="M71 4909 c-5 -13 -22 -41 -39 -62 -37 -46 -35 -66 9 -90 19 -11 36
-23 37 -28 2 -5 8 -9 14 -9 5 0 22 -10 37 -22 l27 -23 -75 -45 c-42 -25 -77
-53 -79 -63 -4 -17 -1 -17 35 2 21 11 58 33 82 50 24 16 49 27 55 25 38 -15
86 -139 86 -225 l0 -45 -122 0 -123 1 -6 65 -6 65 -1 -72 -2 -72 86 -86 c47
-47 93 -85 101 -85 30 0 -72 -86 -130 -110 l-58 -24 2 -98 1 -98 353 0 352 0
7 73 c4 39 11 99 16 132 16 105 29 208 36 272 l6 62 -29 -8 c-16 -5 -61 -22
-100 -40 -39 -17 -75 -31 -79 -31 -13 0 -98 -42 -116 -58 -10 -8 -24 -12 -33
-9 -12 5 -15 -2 -15 -33 0 -36 -3 -40 -25 -40 -29 0 -29 4 -13 100 10 56 16
70 30 70 14 0 18 -9 20 -37 l1 -38 4 35 c3 19 13 40 23 47 10 7 22 27 25 45 9
37 -14 61 -50 52 -27 -7 -32 5 -41 89 -5 59 -4 63 20 81 29 21 31 33 14 71
-13 28 -42 32 -72 10 -26 -20 -33 -19 -47 6 -9 17 -7 25 10 43 27 28 27 43 0
51 -14 5 -28 0 -44 -15 -28 -26 -58 -20 -81 15 -14 22 -14 26 0 47 24 35 20
46 -25 58 -22 6 -47 14 -54 17 -9 3 -18 -4 -24 -18z m173 -574 c11 -30 -17
-115 -38 -115 -10 0 -136 113 -136 122 0 2 38 5 84 7 70 2 84 0 90 -14z m88
-367 c-8 -32 -39 -48 -35 -18 3 21 24 102 31 120 10 24 14 -65 4 -102z m-87
12 c3 -5 -1 -10 -10 -10 -9 0 -13 5 -10 10 3 6 8 10 10 10 2 0 7 -4 10 -10z
m-55 -9 c0 -5 -13 -11 -30 -13 -24 -4 -27 -2 -19 9 13 15 49 18 49 4z"/>
<path d="M5783 4908 c-16 -8 -23 -20 -24 -42 -3 -152 2 -1440 5 -1444 7 -6 80
20 88 32 9 13 8 1304 -1 1396 -7 71 -20 82 -68 58z"/>
<path d="M861 4903 c-1 -6 -4 -20 -7 -30 -5 -17 -5 -17 6 0 6 10 9 23 6 30 -3
9 -5 9 -5 0z"/>
<path d="M1834 4851 c-43 -21 -124 -60 -179 -85 -152 -70 -170 -82 -167 -103
4 -22 174 -707 176 -710 3 -3 116 48 250 111 54 26 120 56 146 67 34 15 47 25
44 37 -7 37 -107 454 -134 562 -16 63 -30 124 -32 134 -5 31 -19 29 -104 -13z
m-124 -85 c0 -2 -7 -7 -16 -10 -8 -3 -12 -2 -9 4 6 10 25 14 25 6z m307 -348
c-3 -7 -5 -2 -5 12 0 14 2 19 5 13 2 -7 2 -19 0 -25z m20 -60 c-3 -7 -5 -2 -5
12 0 14 2 19 5 13 2 -7 2 -19 0 -25z m0 -214 c-3 -3 -12 -4 -19 -1 -8 3 -5 6
6 6 11 1 17 -2 13 -5z m-67 -18 c0 -14 -21 -26 -43 -26 -7 0 -3 6 8 12 19 11
19 11 0 19 -17 6 -16 8 8 8 17 1 27 -4 27 -13z m-309 -53 c-12 -20 -14 -14 -5
12 4 9 9 14 11 11 3 -2 0 -13 -6 -23z m189 -9 c0 -8 -5 -12 -10 -9 -6 4 -8 11
-5 16 9 14 15 11 15 -7z m-50 -9 c0 -2 -10 -10 -22 -16 -21 -11 -22 -11 -9 4
13 16 31 23 31 12z m30 -10 c0 -2 -10 -9 -22 -15 -22 -11 -22 -10 -4 4 21 17
26 19 26 11z m-145 -55 c3 -5 1 -10 -4 -10 -6 0 -11 5 -11 10 0 6 2 10 4 10 3
0 8 -4 11 -10z m42 4 c-3 -3 -12 -4 -19 -1 -8 3 -5 6 6 6 11 1 17 -2 13 -5z"/>
<path d="M475 4833 c-3 -27 -8 -64 -10 -83 -3 -25 -2 -29 4 -15 10 24 24 145
17 145 -3 0 -7 -21 -11 -47z"/>
<path d="M1364 4864 c-19 -15 -19 -15 1 -6 11 5 27 12 35 15 13 5 13 6 -1 6
-8 1 -24 -6 -35 -15z"/>
<path d="M862 4830 c0 -14 2 -19 5 -12 2 6 2 18 0 25 -3 6 -5 1 -5 -13z"/>
<path d="M5560 4800 c-13 -8 -15 -102 -15 -749 0 -407 3 -743 7 -747 5 -4 26
-2 48 5 27 8 41 19 45 34 3 12 4 346 3 742 l-3 720 -35 3 c-19 1 -42 -2 -50
-8z"/>
<path d="M8722 4775 c0 -16 2 -22 5 -12 2 9 2 23 0 30 -3 6 -5 -1 -5 -18z"/>
<path d="M1252 4745 c0 -11 3 -29 8 -40 11 -25 11 1 0 35 -6 20 -8 21 -8 5z"/>
<path d="M5390 4717 c0 -2 8 -19 17 -38 26 -51 21 -285 -7 -339 -51 -99 -191
-189 -357 -230 -24 -5 -62 -15 -85 -21 -24 -6 -79 -14 -123 -19 -74 -8 -72 -9
36 -5 141 6 243 31 347 85 90 46 160 109 194 171 22 41 23 55 23 219 0 174 0
175 -22 178 -13 2 -23 2 -23 -1z"/>
<path d="M905 4689 c-4 -6 -5 -12 -2 -15 2 -3 7 2 10 11 7 17 1 20 -8 4z"/>
<path d="M3231 4684 c0 -11 3 -14 6 -6 3 7 2 16 -1 19 -3 4 -6 -2 -5 -13z"/>
<path d="M1271 4664 c0 -11 3 -14 6 -6 3 7 2 16 -1 19 -3 4 -6 -2 -5 -13z"/>
<path d="M10020 4669 c-35 -5 -70 -15 -77 -21 -17 -13 -17 -37 0 -43 173 -55
220 -102 205 -202 -3 -15 -3 -22 -1 -16 3 9 15 5 37 -12 18 -14 38 -25 44 -25
9 0 12 46 12 160 0 149 -1 160 -19 160 -10 0 -45 2 -77 4 -32 3 -88 0 -124 -5z"/>
<path d="M440 4619 c0 -5 5 -7 10 -4 6 3 10 8 10 11 0 2 -4 4 -10 4 -5 0 -10
-5 -10 -11z"/>
<path d="M921 4594 c0 -11 3 -14 6 -6 3 7 2 16 -1 19 -3 4 -6 -2 -5 -13z"/>
<path d="M5321 4584 c0 -11 3 -14 6 -6 3 7 2 16 -1 19 -3 4 -6 -2 -5 -13z"/>
<path d="M1292 4570 c0 -14 2 -19 5 -12 2 6 2 18 0 25 -3 6 -5 1 -5 -13z"/>
<path d="M1301 4520 c0 -8 4 -22 9 -30 12 -18 12 -2 0 25 -6 13 -9 15 -9 5z"/>
<path d="M3272 4505 c0 -16 2 -22 5 -12 2 9 2 23 0 30 -3 6 -5 -1 -5 -18z"/>
<path d="M3200 4435 c-58 -31 -40 -31 25 0 28 13 43 24 35 24 -8 0 -35 -11
-60 -24z"/>
<path d="M1321 4445 c1 -19 18 -51 18 -35 0 8 -4 22 -9 30 -5 8 -9 11 -9 5z"/>
<path d="M5386 4402 c-3 -5 1 -9 9 -9 8 0 12 4 9 9 -3 4 -7 8 -9 8 -2 0 -6 -4
-9 -8z"/>
<path d="M6759 4388 c-19 -19 -63 -24 -111 -12 -39 9 -71 -23 -63 -65 7 -43
22 -65 57 -85 26 -16 31 -16 59 -2 28 14 34 14 52 1 12 -8 34 -15 50 -15 16 0
37 -5 48 -10 13 -8 25 -8 37 0 13 8 13 10 2 9 -8 -1 -28 3 -43 9 -16 7 -34 12
-42 12 -7 0 -21 3 -31 7 -16 6 -16 7 2 13 11 4 20 17 21 31 1 13 5 35 8 49 5
18 1 33 -12 49 -17 20 -21 21 -34 9z m11 -28 c0 -5 -7 -10 -16 -10 -8 0 -12 5
-9 10 3 6 10 10 16 10 5 0 9 -4 9 -10z"/>
<path d="M3080 4375 c-14 -8 -20 -14 -14 -15 5 0 19 7 30 15 24 18 16 19 -16
0z"/>
<path d="M3000 4340 c-19 -11 -31 -19 -27 -20 12 0 77 28 77 34 0 10 -14 6
-50 -14z"/>
<path d="M8170 4226 l0 -116 -27 -11 c-16 -6 -47 -12 -70 -13 -24 0 -43 -4
-43 -7 0 -4 -39 -12 -87 -19 -83 -11 -270 -39 -393 -60 -30 -5 -120 -16 -200
-25 -80 -9 -235 -31 -345 -48 -269 -42 -284 -41 -301 10 -2 7 -102 -32 -126
-49 -15 -10 -57 -32 -93 -49 l-65 -29 0 -124 0 -123 -62 -31 c-35 -17 -234
-115 -443 -217 -209 -103 -390 -191 -402 -195 -13 -6 -33 -33 -48 -65 -32 -67
-121 -139 -185 -150 -3 0 -14 -6 -26 -12 -21 -12 -130 -39 -189 -46 -16 -3
-44 -8 -62 -12 -34 -8 -33 -4 -46 -165 -2 -27 -14 -46 -45 -75 -32 -31 -40
-44 -32 -55 9 -13 10 -13 10 0 0 8 14 28 30 43 17 16 30 24 30 18 0 -5 -10
-17 -22 -26 -13 -8 -21 -17 -18 -18 3 -1 -5 -15 -17 -30 -14 -18 -23 -23 -26
-15 -3 7 -6 3 -6 -10 -1 -13 -5 -21 -10 -18 -5 4 -11 3 -13 -1 -5 -12 -60 -48
-93 -61 -43 -16 -189 -42 -249 -43 l-51 -1 55 -10 c79 -14 350 -3 440 17 83
19 168 54 206 84 14 11 44 46 66 78 23 32 52 70 66 85 14 15 23 31 19 34 -10
10 -120 54 -135 54 -7 0 -11 4 -8 9 3 5 29 11 58 14 398 40 493 53 698 93 209
41 243 50 293 71 l38 16 -8 46 c-12 69 -4 230 13 263 17 34 78 73 154 101 46
18 81 21 210 22 86 1 161 5 169 9 7 5 70 12 139 16 147 10 271 46 350 103 26
18 61 39 79 46 17 7 50 30 72 50 39 36 41 41 41 94 0 31 -4 59 -10 62 -6 3
-10 -4 -10 -18 0 -67 -99 -142 -177 -134 -24 3 -43 0 -43 -5 0 -5 -4 -6 -10
-3 -6 3 -10 -4 -11 -17 0 -21 -1 -21 -8 -4 -7 19 -8 19 -16 0 -4 -10 -7 -22
-7 -27 1 -4 -9 -5 -22 -1 -14 3 -27 1 -31 -7 -5 -8 -4 -10 3 -5 7 4 12 2 12
-4 0 -6 -15 -8 -42 -4 -41 6 -42 6 -23 -11 20 -16 19 -16 -8 -10 -19 4 -29 1
-33 -10 -3 -8 -10 -13 -15 -10 -4 3 -31 -2 -58 -11 -45 -14 -54 -15 -93 -1
-31 11 -36 16 -20 16 13 1 21 5 17 10 -3 6 -18 6 -37 0 -28 -8 -36 -6 -58 17
-20 20 -21 24 -6 18 15 -6 17 -4 11 6 -6 10 -4 12 8 7 20 -8 21 -3 6 26 -12
22 -12 22 9 3 12 -10 20 -21 18 -25 -12 -19 191 -21 256 -2 35 10 49 20 57 40
9 24 11 84 2 75 -2 -2 -10 5 -18 16 -8 11 -20 20 -28 20 -7 0 -15 4 -17 8 -5
13 -101 51 -146 58 -23 4 -40 10 -37 14 9 15 72 20 106 9 46 -15 139 -62 139
-71 0 -4 15 -11 34 -16 74 -21 234 34 256 87 10 25 8 35 -10 70 -11 23 -18 46
-15 51 10 16 123 46 235 64 58 9 141 23 185 31 44 8 161 29 260 45 99 17 197
35 219 41 38 10 38 11 32 50 -6 36 -4 40 21 50 16 5 60 24 100 42 63 28 69 33
50 40 -32 12 -247 74 -284 82 l-33 7 0 -116z m-1118 -613 c25 -23 23 -41 -7
-49 -29 -7 -55 10 -55 36 0 34 31 41 62 13z m-91 -43 c10 -6 19 -17 19 -25 0
-19 -44 -20 -60 -1 -6 8 -18 12 -26 9 -14 -5 -19 8 -7 20 10 10 52 8 74 -3z
m-203 -25 c-3 -3 -9 2 -12 12 -6 14 -5 15 5 6 7 -7 10 -15 7 -18z m239 -101
c-3 -3 -12 -4 -19 -1 -8 3 -5 6 6 6 11 1 17 -2 13 -5z"/>
<path d="M2930 4309 c-8 -5 -59 -29 -113 -55 -54 -25 -97 -48 -94 -50 2 -3 26
7 52 21 26 14 56 25 66 25 11 0 19 4 19 9 0 5 17 15 38 21 38 13 59 26 51 34
-2 2 -11 0 -19 -5z"/>
<path d="M1367 4255 c7 -49 13 -58 13 -19 0 16 -5 36 -10 44 -6 10 -7 2 -3
-25z"/>
<path d="M9381 4228 c30 -30 84 -58 112 -58 20 0 30 -7 37 -24 10 -27 39 -38
147 -57 60 -11 286 -9 297 2 3 3 -4 29 -15 59 -11 30 -18 62 -15 72 3 14 1 16
-7 10 -46 -38 -411 -34 -547 4 -23 7 -24 6 -9 -8z"/>
<path d="M5436 4197 c-6 -34 -82 -129 -118 -148 -16 -8 -23 -8 -30 2 -8 11 -9
10 -4 -3 6 -20 -43 -45 -150 -79 -136 -42 -221 -53 -444 -53 -148 -1 -198 -3
-160 -9 105 -15 379 -11 479 7 199 35 325 96 400 192 15 20 20 23 16 9 -4 -11
-14 -42 -23 -69 -17 -52 -75 -119 -151 -174 -70 -51 -235 -95 -411 -111 l-95
-8 95 -1 c121 -2 212 11 309 44 159 54 283 188 285 306 1 25 4 44 9 41 4 -2 7
16 7 41 0 54 -5 59 -14 13z"/>
<path d="M2685 4190 c-3 -6 1 -7 9 -4 18 7 21 14 7 14 -6 0 -13 -4 -16 -10z"/>
<path d="M7887 4183 c-11 -10 -8 -53 3 -53 6 0 10 14 10 30 0 31 -2 35 -13 23z"/>
<path d="M1391 4154 c0 -11 3 -14 6 -6 3 7 2 16 -1 19 -3 4 -6 -2 -5 -13z"/>
<path d="M7996 4162 c-3 -6 -1 -14 5 -17 15 -10 25 3 12 16 -7 7 -13 7 -17 1z"/>
<path d="M2510 4109 c-30 -16 -44 -26 -30 -23 33 9 119 54 100 53 -8 -1 -40
-14 -70 -30z"/>
<path d="M7850 4130 c-13 -8 -12 -10 3 -10 9 0 17 5 17 10 0 12 -1 12 -20 0z"/>
<path d="M1401 4120 c0 -8 4 -24 9 -35 5 -13 9 -14 9 -5 0 8 -4 24 -9 35 -5
13 -9 14 -9 5z"/>
<path d="M6966 4109 c-16 -10 -32 -22 -35 -27 -3 -5 -20 -16 -36 -25 -40 -20
-68 -53 -72 -83 -3 -19 1 -24 19 -24 13 0 30 5 38 10 13 9 13 11 0 20 -13 8
-12 10 3 10 9 0 17 5 17 11 0 5 5 7 10 4 6 -4 8 -10 5 -15 -3 -4 5 -6 17 -2
16 4 19 2 13 -8 -6 -10 0 -12 30 -7 45 7 55 19 55 70 0 26 4 37 15 37 12 0 14
-7 9 -27 -6 -23 -5 -26 16 -20 16 4 23 1 27 -14 6 -20 14 -22 51 -13 28 8 29
37 2 64 -24 24 -60 27 -60 4 0 -14 -2 -14 -16 1 -10 9 -25 14 -35 12 -10 -3
-20 0 -22 7 -2 6 -2 -13 1 -41 2 -31 0 -53 -5 -53 -5 0 -8 12 -6 28 2 15 1 43
-4 63 l-8 36 -29 -18z"/>
<path d="M7567 4094 c-3 -19 -1 -24 10 -20 8 3 19 6 24 6 6 0 5 8 -1 20 -15
27 -27 25 -33 -6z"/>
<path d="M7700 4110 c0 -5 9 -10 19 -10 11 0 23 5 26 10 4 6 -5 10 -19 10 -14
0 -26 -4 -26 -10z"/>
<path d="M7278 4070 c-2 -28 0 -40 9 -40 8 0 13 14 13 40 0 22 -4 40 -9 40 -5
0 -11 -18 -13 -40z"/>
<path d="M7450 4103 c-34 -13 -34 -55 1 -46 12 3 19 14 19 29 0 13 -1 24 -2
23 -2 0 -10 -3 -18 -6z"/>
<path d="M6740 4086 c0 -2 7 -7 16 -10 8 -3 12 -2 9 4 -6 10 -25 14 -25 6z"/>
<path d="M7938 4083 c7 -3 16 -2 19 1 4 3 -2 6 -13 5 -11 0 -14 -3 -6 -6z"/>
<path d="M2422 4066 c-32 -18 -37 -25 -13 -19 11 3 26 11 32 19 13 16 12 16
-19 0z"/>
<path d="M7840 4070 c-34 -7 -34 -7 -5 -8 17 0 44 4 60 8 27 7 27 8 5 8 -14
-1 -41 -4 -60 -8z"/>
<path d="M2350 4030 c-13 -8 -13 -10 2 -10 9 0 20 5 23 10 8 13 -5 13 -25 0z"/>
<path d="M3593 4033 c4 -3 5 -9 1 -14 -6 -11 4 -11 31 1 16 7 17 9 3 9 -9 1
-22 3 -30 4 -7 2 -10 2 -5 0z"/>
<path d="M9109 4017 c-56 -30 -73 -60 -54 -98 27 -51 161 -139 213 -139 26 0
62 16 62 28 0 4 -23 15 -51 25 -57 21 -129 80 -129 107 0 10 16 33 35 51 18
18 32 36 29 41 -10 15 -61 8 -105 -15z"/>
<path d="M2285 4005 c-16 -8 -23 -14 -14 -15 8 0 24 7 35 15 23 18 18 18 -21
0z"/>
<path d="M7488 4003 c7 -3 16 -2 19 1 4 3 -2 6 -13 5 -11 0 -14 -3 -6 -6z"/>
<path d="M7328 3983 c7 -3 16 -2 19 1 4 3 -2 6 -13 5 -11 0 -14 -3 -6 -6z"/>
<path d="M2220 3970 c-8 -5 -12 -11 -10 -14 3 -2 14 2 24 10 22 15 10 19 -14
4z"/>
<path d="M4325 3950 c3 -5 14 -10 23 -10 15 0 15 2 2 10 -20 13 -33 13 -25 0z"/>
<path d="M2156 3941 c-4 -5 3 -7 14 -4 23 6 26 13 6 13 -8 0 -17 -4 -20 -9z"/>
<path d="M4378 3933 c7 -3 16 -2 19 1 4 3 -2 6 -13 5 -11 0 -14 -3 -6 -6z"/>
<path d="M4410 3928 c0 -4 14 -8 30 -8 17 0 30 2 30 4 0 2 -13 6 -30 8 -16 3
-30 1 -30 -4z"/>
<path d="M5437 3895 c-10 -42 -78 -118 -147 -165 -58 -39 -123 -65 -240 -93
-156 -38 -151 -37 -82 -32 171 13 319 73 411 169 26 27 37 33 44 23 5 -8 6 -5
3 9 -4 11 1 35 10 52 8 18 14 40 12 50 -3 11 -7 7 -11 -13z"/>
<path d="M2010 3870 c-30 -16 -52 -29 -49 -30 10 0 119 51 119 56 0 8 -16 2
-70 -26z"/>
<path d="M5161 3874 c0 -11 3 -14 6 -6 3 7 2 16 -1 19 -3 4 -6 -2 -5 -13z"/>
<path d="M8935 3870 c-3 -5 28 -32 69 -60 61 -40 83 -50 117 -50 l42 0 -38 30
c-38 30 -153 90 -173 90 -6 0 -13 -4 -17 -10z"/>
<path d="M8475 3851 c-22 -4 -60 -20 -85 -35 -25 -15 -75 -41 -112 -59 -38
-17 -68 -35 -68 -40 0 -5 7 -6 16 -3 8 3 12 2 9 -4 -3 -5 15 -31 41 -56 l46
-47 59 6 c65 7 117 -3 64 -13 -24 -4 -30 -10 -30 -30 0 -22 13 -32 95 -72 105
-53 122 -58 94 -27 -19 22 -19 22 4 10 12 -7 26 -9 31 -6 5 3 11 -1 14 -7 2
-8 8 -9 13 -4 5 5 -5 20 -25 35 -19 14 -50 41 -70 58 -35 32 -35 32 -11 32 14
0 70 -11 125 -24 119 -29 119 -29 150 -9 l25 16 -85 80 c-47 44 -88 91 -91
104 -4 17 -13 24 -31 24 -25 0 -83 29 -83 41 0 4 -9 9 -21 12 -12 3 -18 10
-14 16 7 12 0 12 -60 2z m290 -249 c-3 -3 -11 0 -18 7 -9 10 -8 11 6 5 10 -3
15 -9 12 -12z m45 -8 c0 -8 -19 -13 -24 -6 -3 5 1 9 9 9 8 0 15 -2 15 -3z"/>
<path d="M1471 3834 c0 -11 3 -14 6 -6 3 7 2 16 -1 19 -3 4 -6 -2 -5 -13z"/>
<path d="M1481 3800 c0 -8 4 -22 9 -30 12 -18 12 -2 0 25 -6 13 -9 15 -9 5z"/>
<path d="M1865 3800 c-3 -6 1 -7 9 -4 18 7 21 14 7 14 -6 0 -13 -4 -16 -10z"/>
<path d="M5441 3777 c-5 -111 -156 -243 -326 -287 -12 -3 -44 -14 -65 -23 -32
-14 78 6 133 24 157 50 280 184 264 287 l-4 27 -2 -28z"/>
<path d="M1810 3775 c-16 -9 -19 -14 -9 -15 8 0 24 7 35 15 24 18 7 19 -26 0z"/>
<path d="M8749 3729 c41 -36 60 -48 75 -43 14 3 17 2 8 -4 -9 -6 6 -17 49 -36
50 -22 66 -25 83 -17 20 10 20 11 -3 5 -17 -4 -21 -3 -16 6 4 7 19 10 36 6 16
-3 29 -1 29 4 0 6 -14 10 -32 10 -17 0 -28 3 -25 7 6 5 -134 78 -161 83 -4 1
-16 7 -27 13 -11 6 -31 12 -45 13 -22 2 -18 -4 29 -47z"/>
<path d="M1728 3734 c-37 -19 -35 -26 2 -13 17 6 30 15 30 20 0 11 1 11 -32
-7z"/>
<path d="M7644 3732 c-28 -18 -34 -57 -36 -215 -2 -126 1 -168 11 -181 7 -9
17 -16 21 -16 5 0 54 -27 110 -60 56 -33 103 -60 105 -60 2 0 48 -26 102 -58
54 -31 121 -68 148 -82 28 -13 57 -29 65 -36 8 -7 49 -30 91 -52 42 -22 114
-62 160 -88 46 -26 122 -68 169 -94 47 -26 119 -66 160 -90 41 -24 114 -64
162 -90 l87 -48 1 208 1 209 -33 24 c-18 14 -55 36 -83 50 -27 14 -88 49 -135
78 -47 29 -114 68 -149 86 -78 40 -77 38 -57 58 9 9 14 20 11 25 -3 4 5 6 17
3 17 -3 19 -2 9 5 -7 5 -35 10 -61 10 -49 0 -120 20 -120 34 0 4 -5 8 -12 8
-16 0 -108 60 -108 71 0 4 19 13 41 19 23 6 50 17 61 23 15 9 20 9 27 -2 5 -8
11 -9 15 -3 5 9 -14 30 -41 46 -7 4 -39 -7 -72 -24 -62 -31 -124 -39 -137 -18
-4 6 3 19 17 29 78 58 79 60 76 92 -8 69 -57 107 -108 85 -16 -7 -32 -21 -35
-32 -5 -14 -13 -17 -34 -12 -18 3 -44 -2 -71 -15 -30 -15 -53 -19 -78 -15 -40
6 -164 66 -199 97 -22 19 -64 39 -80 39 -4 0 -12 -4 -18 -8z m526 -82 c0 -5
-7 -7 -15 -4 -8 4 -15 8 -15 10 0 2 7 4 15 4 8 0 15 -4 15 -10z m48 -51 c4
-35 -43 -70 -104 -77 -60 -6 -58 14 6 53 28 16 50 35 50 43 0 8 9 12 23 10 15
-2 23 -11 25 -29z"/>
<path d="M578 3710 c-29 -4 -57 -15 -71 -28 -21 -20 -24 -31 -24 -112 0 -50 3
-90 7 -90 13 0 -1 -184 -16 -207 -8 -13 -43 -41 -78 -63 -35 -22 -72 -52 -81
-66 -23 -35 -34 -240 -35 -612 0 -322 0 -325 62 -377 76 -64 178 -86 411 -86
199 -1 376 8 438 23 l47 11 4 54 c4 42 11 60 33 83 29 30 105 60 152 60 43 0
14 19 -66 44 -80 25 -176 40 -331 51 l-85 6 0 357 c0 384 -3 407 -52 456 -15
15 -52 41 -84 58 -32 17 -62 40 -66 52 -4 11 -6 91 -5 176 3 151 2 156 -20
177 -30 28 -82 40 -140 33z m-175 -662 c83 -29 260 -30 357 -3 36 10 76 18 90
19 l25 1 3 -307 2 -306 -32 -7 c-18 -4 -37 -11 -43 -15 -20 -15 -221 -28 -299
-19 -81 9 -102 13 -148 31 l-28 10 0 309 c0 170 2 309 5 309 3 0 34 -10 68
-22z"/>
<path d="M644 2702 c-15 -9 -29 -112 -16 -112 6 0 13 19 17 43 4 23 14 50 23
60 12 14 13 17 1 17 -8 0 -19 -4 -25 -8z"/>
<path d="M560 2680 c11 -11 20 -33 20 -49 0 -29 -14 -41 -51 -41 -11 0 -17 -4
-14 -10 10 -17 51 -11 70 10 28 31 5 110 -31 110 -10 0 -8 -6 6 -20z"/>
<path d="M510 2661 c-13 -25 -13 -51 0 -51 6 0 10 4 10 9 0 5 9 13 20 16 26 8
26 25 -1 25 -11 0 -17 5 -14 10 3 6 4 10 1 10 -3 0 -10 -9 -16 -19z"/>
<path d="M513 2443 c9 -2 25 -2 35 0 9 3 1 5 -18 5 -19 0 -27 -2 -17 -5z"/>
<path d="M1653 3700 c-13 -5 -23 -12 -23 -15 0 -9 16 -5 36 10 22 16 19 18
-13 5z"/>
<path d="M3140 3690 c0 -5 7 -7 15 -4 8 4 15 8 15 10 0 2 -7 4 -15 4 -8 0 -15
-4 -15 -10z"/>
<path d="M1575 3660 c-3 -6 1 -7 9 -4 18 7 21 14 7 14 -6 0 -13 -4 -16 -10z"/>
<path d="M3030 3640 c-9 -6 -10 -10 -3 -10 6 0 15 5 18 10 8 12 4 12 -15 0z"/>
<path d="M9659 3622 l-56 -28 42 -15 c23 -9 95 -44 159 -79 l116 -63 0 -222
c0 -222 0 -223 -22 -229 -13 -3 -26 -6 -30 -6 -5 0 -8 104 -8 230 l0 230 -22
0 c-13 -1 -33 -9 -46 -20 l-23 -19 7 -235 7 -234 -32 -16 -31 -17 0 230 c0
225 0 230 -21 236 -30 10 -74 -25 -72 -56 1 -21 4 -416 3 -445 0 -9 -41 -34
-55 -34 -3 0 -5 104 -5 230 l0 230 -35 0 c-24 0 -35 -5 -35 -15 0 -8 -5 -15
-11 -15 -8 0 -9 -66 -4 -233 l8 -233 -26 -17 c-15 -9 -29 -17 -32 -17 -3 0 -5
93 -5 208 0 114 -3 217 -6 230 -7 24 -33 29 -66 11 -20 -11 -20 -17 -17 -248
3 -191 1 -241 -10 -254 -13 -17 -52 -24 -50 -9 1 4 1 107 0 230 l-1 224 -32
-7 c-62 -14 -61 -7 -53 -261 l7 -231 -23 -17 c-13 -9 -28 -16 -34 -16 -6 0
-10 77 -10 222 l0 223 -32 -1 c-19 -1 -33 3 -33 10 0 6 -7 -2 -15 -18 -12 -23
-15 -74 -15 -262 0 -180 -3 -234 -12 -234 -8 0 -7 -4 3 -10 9 -5 70 -5 150 -1
74 5 137 7 141 5 11 -7 249 16 328 31 133 25 333 95 513 179 l77 36 0 220 0
219 -37 10 c-21 6 -48 11 -60 11 -52 0 -53 2 -53 153 0 110 -3 138 -12 129 -9
-9 -11 -72 -9 -241 l3 -230 -31 -16 -31 -16 0 234 0 234 -40 27 c-22 14 -62
35 -90 46 -27 11 -68 31 -90 45 -50 32 -62 31 -131 -3z"/>
<path d="M2964 3626 c11 -9 24 -16 30 -16 12 0 7 5 -24 19 -24 11 -24 11 -6
-3z"/>
<path d="M7153 3595 c-3 -9 -3 -18 -1 -21 3 -3 8 4 11 16 6 23 -1 27 -10 5z"/>
<path d="M3600 3570 c-19 -16 -30 -29 -25 -29 6 0 26 13 45 29 19 17 30 30 24
30 -5 0 -25 -13 -44 -30z"/>
<path d="M2870 3560 c-9 -6 -10 -10 -3 -10 6 0 15 5 18 10 8 12 4 12 -15 0z"/>
<path d="M3290 3560 c0 -5 5 -10 10 -10 6 0 10 5 10 10 0 6 -4 10 -10 10 -5 0
-10 -4 -10 -10z"/>
<path d="M2790 3554 c0 -2 9 -8 20 -14 11 -6 20 -7 20 -2 0 6 -9 12 -20 15
-11 3 -20 3 -20 1z"/>
<path d="M5441 3543 c-1 -18 -60 -82 -105 -115 -30 -21 -42 -25 -48 -16 -6 10
-8 9 -8 -3 0 -30 -164 -85 -335 -113 l-90 -15 80 5 c144 9 264 37 355 84 79
40 170 141 156 173 -3 9 -5 9 -5 0z"/>
<path d="M6779 3509 c-11 -6 -11 -11 -1 -21 10 -10 15 -9 28 4 13 13 13 16 1
21 -7 3 -20 1 -28 -4z"/>
<path d="M3410 3480 c12 -12 26 -18 32 -14 7 5 5 12 -7 21 -30 21 -48 16 -25
-7z"/>
<path d="M2627 3479 c7 -7 15 -10 18 -7 3 3 -2 9 -12 12 -14 6 -15 5 -6 -5z"/>
<path d="M9466 3475 c4 -8 8 -15 10 -15 2 0 4 7 4 15 0 8 -4 15 -10 15 -5 0
-7 -7 -4 -15z"/>
<path d="M6880 3461 c0 -5 9 -7 20 -4 11 3 20 7 20 9 0 2 -9 4 -20 4 -11 0
-20 -4 -20 -9z"/>
<path d="M3207 3439 c7 -7 15 -10 18 -7 3 3 -2 9 -12 12 -14 6 -15 5 -6 -5z"/>
<path d="M3262 3401 c13 -22 28 -28 28 -11 0 5 -9 14 -20 20 -19 10 -20 10 -8
-9z"/>
<path d="M3620 3405 c-14 -8 -20 -14 -14 -15 5 0 19 7 30 15 24 18 16 19 -16
0z"/>
<path d="M5460 3390 c0 -34 -99 -123 -180 -162 -64 -31 -212 -71 -335 -92 -16
-2 11 -3 60 0 107 5 215 31 299 73 64 32 131 89 141 122 4 11 11 17 16 14 5
-4 9 10 9 29 0 20 -2 36 -5 36 -3 0 -5 -9 -5 -20z"/>
<path d="M2470 3390 c0 -5 5 -10 11 -10 5 0 7 5 4 10 -3 6 -8 10 -11 10 -2 0
-4 -4 -4 -10z"/>
<path d="M3524 3354 c-18 -14 -18 -14 6 -3 31 14 36 19 24 19 -6 0 -19 -7 -30
-16z"/>
<path d="M3072 3347 c15 -16 53 -37 65 -37 4 0 -9 11 -29 25 -40 27 -57 33
-36 12z"/>
<path d="M5460 3306 c0 -66 -45 -137 -123 -194 -92 -66 -173 -95 -355 -127
-68 -12 -98 -21 -89 -27 9 -4 53 -1 104 7 205 36 291 70 380 149 27 25 54 42
58 38 5 -4 5 -1 1 6 -4 7 0 24 9 38 16 25 34 134 21 134 -3 0 -6 -11 -6 -24z"/>
<path d="M2318 3303 c6 -2 18 -2 25 0 6 3 1 5 -13 5 -14 0 -19 -2 -12 -5z"/>
<path d="M2668 3303 c-10 -2 -18 -9 -18 -14 0 -13 12 -11 34 6 20 15 16 17
-16 8z"/>
<path d="M3368 3279 c-21 -11 -38 -22 -38 -24 0 -5 79 32 89 41 12 11 -18 1
-51 -17z"/>
<path d="M2930 3270 c0 -11 29 -40 40 -40 5 0 12 5 15 10 3 6 -1 10 -9 10 -9
0 -16 4 -16 9 0 5 -7 11 -15 15 -8 3 -15 1 -15 -4z"/>
<path d="M209 3244 c-3 -5 -2 -36 2 -69 3 -33 6 -45 7 -27 2 32 25 46 35 20 2
-7 4 -1 3 13 -1 26 -40 78 -47 63z"/>
<path d="M2509 3221 c-22 -18 -23 -20 -4 -18 24 2 63 37 41 37 -8 0 -24 -9
-37 -19z"/>
<path d="M170 3220 c0 -5 5 -10 10 -10 6 0 10 5 10 10 0 6 -4 10 -10 10 -5 0
-10 -4 -10 -10z"/>
<path d="M2168 3223 c7 -3 16 -2 19 1 4 3 -2 6 -13 5 -11 0 -14 -3 -6 -6z"/>
<path d="M3210 3200 c-30 -16 -50 -29 -45 -29 6 0 35 13 65 29 30 16 51 29 45
29 -5 0 -35 -13 -65 -29z"/>
<path d="M277 3181 c3 -10 -1 -30 -7 -42 -11 -21 -11 -22 2 -9 8 8 20 27 26
43 10 24 9 27 -7 27 -14 0 -18 -5 -14 -19z"/>
<path d="M1910 3196 c0 -3 9 -10 20 -16 11 -6 20 -8 20 -6 0 3 -9 10 -20 16
-11 6 -20 8 -20 6z"/>
<path d="M2775 3180 c3 -5 15 -15 27 -21 16 -8 19 -8 16 2 -2 6 -14 16 -27 20
-14 6 -20 5 -16 -1z"/>
<path d="M2045 3160 c-3 -6 1 -7 9 -4 18 7 21 14 7 14 -6 0 -13 -4 -16 -10z"/>
<path d="M7010 3148 c0 -14 80 -52 89 -43 8 9 -52 54 -71 55 -10 0 -18 -6 -18
-12z"/>
<path d="M5281 3134 c0 -11 3 -14 6 -6 3 7 2 16 -1 19 -3 4 -6 -2 -5 -13z"/>
<path d="M145 3124 c-11 -8 -48 -29 -83 -47 -34 -17 -62 -37 -62 -44 0 -17 97
28 139 66 36 32 41 50 6 25z"/>
<path d="M1990 3131 c0 -5 9 -7 20 -4 11 3 20 7 20 9 0 2 -9 4 -20 4 -11 0
-20 -4 -20 -9z"/>
<path d="M3070 3130 c-8 -5 -10 -10 -5 -10 6 0 17 5 25 10 8 5 11 10 5 10 -5
0 -17 -5 -25 -10z"/>
<path d="M3019 3103 c-13 -15 -12 -15 9 -4 23 12 28 21 13 21 -5 0 -15 -7 -22
-17z"/>
<path d="M6989 3098 c-6 -11 -9 -31 -6 -44 2 -13 -1 -25 -7 -28 -6 -2 -3 -5 7
-5 16 -1 16 -4 -4 -30 -15 -20 -20 -38 -16 -57 3 -15 0 -33 -7 -40 -6 -8 -17
-21 -25 -30 -14 -16 -15 -16 -22 2 -6 16 -8 14 -8 -8 -1 -16 -5 -28 -11 -28
-5 0 -10 -5 -10 -11 0 -6 12 -1 27 10 14 12 28 19 31 16 7 -7 -40 -44 -65 -51
-20 -5 -39 -32 -29 -41 2 -2 19 0 37 6 22 6 27 10 14 11 -14 1 -9 5 17 16 20
9 38 23 41 33 2 11 35 31 85 52 44 19 78 38 74 43 -3 5 0 6 7 1 7 -4 20 1 32
14 23 24 24 41 3 41 -8 0 -12 5 -9 10 8 14 1 13 -42 -5 -50 -21 -54 -11 -5 14
23 11 43 25 47 31 13 21 -26 56 -85 77 l-60 22 -11 -21z m101 -62 c31 -13 31
-13 9 -19 -36 -10 -69 -8 -69 3 0 6 10 9 23 7 12 -2 16 -2 10 0 -7 3 -13 9
-13 14 0 12 2 12 40 -5z m-99 -69 c-6 -8 -8 -17 -4 -20 3 -4 1 -7 -5 -7 -15 0
-15 13 0 28 16 16 23 15 9 -1z m139 -7 c0 -16 -45 -30 -71 -23 -21 6 -22 4
-11 -9 10 -13 10 -17 -1 -21 -9 -3 -13 2 -12 16 1 17 9 22 29 23 15 1 32 6 39
13 14 14 27 14 27 1z m-113 -62 c-3 -7 -5 -2 -5 12 0 14 2 19 5 13 2 -7 2 -19
0 -25z"/>
<path d="M2636 3097 c3 -10 9 -15 12 -12 3 3 0 11 -7 18 -10 9 -11 8 -5 -6z"/>
<path d="M2945 3070 c-3 -5 -2 -10 4 -10 5 0 13 5 16 10 3 6 2 10 -4 10 -5 0
-13 -4 -16 -10z"/>
<path d="M2481 3033 c7 -10 15 -20 16 -22 2 -2 3 3 3 11 0 9 -7 19 -16 22 -15
6 -15 4 -3 -11z"/>
<path d="M70 3005 c-7 -9 -8 -15 -2 -15 5 0 12 7 16 15 3 8 4 15 2 15 -2 0 -9
-7 -16 -15z"/>
<path d="M6908 2916 c-16 -8 -28 -13 -28 -10 0 3 -10 -2 -22 -10 -12 -9 -30
-16 -40 -16 -9 0 -19 -4 -23 -9 -3 -6 7 -6 27 0 18 5 46 12 61 14 31 6 67 26
67 37 0 12 -12 10 -42 -6z"/>
<path d="M2630 2910 c-9 -6 -10 -10 -3 -10 6 0 15 5 18 10 8 12 4 12 -15 0z"/>
<path d="M7910 2756 c0 -26 6 -34 28 -43 l27 -12 -29 6 c-28 6 -28 5 -24 -29
3 -28 1 -35 -10 -30 -11 4 -10 -2 4 -23 18 -27 18 -28 -4 -21 -20 7 -21 5 -12
-19 7 -17 7 -24 0 -20 -6 4 -10 -8 -10 -29 0 -25 -6 -40 -20 -48 -26 -16 -26
-32 -1 -18 25 13 31 13 31 0 0 -5 -5 -10 -11 -10 -6 0 -26 -12 -45 -26 -19
-15 -34 -23 -34 -18 0 4 -6 0 -13 -11 -9 -11 -19 -15 -27 -10 -8 5 -11 4 -6
-3 3 -5 0 -12 -6 -15 -7 -3 6 -2 30 0 28 4 42 2 42 -6 0 -6 -12 -11 -27 -12
l-28 -1 28 -8 c16 -5 34 -13 40 -18 17 -13 69 -21 88 -13 9 3 31 19 49 34 27
23 31 30 19 38 -11 8 -10 9 6 7 15 -2 20 2 18 16 -1 11 5 29 13 40 9 13 14 15
14 7 0 -8 3 -11 6 -8 4 4 1 13 -6 22 -16 19 -5 32 13 16 19 -15 40 9 41 49 1
20 5 29 14 25 6 -2 12 2 12 10 0 8 5 15 10 15 6 0 10 12 10 26 0 16 -4 23 -11
18 -6 -3 -15 0 -20 7 -5 8 -3 16 4 21 16 10 -5 24 -116 81 l-87 45 0 -32z
m210 -151 c0 -10 -16 -4 -40 16 l-25 20 33 -16 c17 -8 32 -18 32 -20z m-59 -1
c17 -8 29 -17 27 -20 -7 -6 -68 19 -68 28 0 11 7 10 41 -8z m-97 -78 c-2 -12
4 -15 20 -11 18 5 19 5 4 -5 -12 -7 -24 -8 -37 -1 -10 6 -22 7 -26 3 -5 -4 -5
-2 -1 5 4 7 14 9 24 6 15 -6 16 -5 2 12 -13 16 -13 18 0 13 8 -3 14 -13 14
-22z m51 -25 c-3 -6 -11 -11 -16 -11 -5 0 -4 6 3 14 14 16 24 13 13 -3z m55 9
c0 -5 -2 -10 -4 -10 -3 0 -8 5 -11 10 -3 6 -1 10 4 10 6 0 11 -4 11 -10z m-57
-45 c-3 -9 -8 -14 -10 -11 -3 3 -2 9 2 15 9 16 15 13 8 -4z"/>
<path d="M6805 2771 c-19 -8 -19 -8 1 -19 17 -9 20 -7 20 9 0 10 0 19 -1 18 0
0 -9 -4 -20 -8z"/>
<path d="M6758 2753 c7 -3 16 -2 19 1 4 3 -2 6 -13 5 -11 0 -14 -3 -6 -6z"/>
<path d="M5580 2743 c-114 -17 -208 -64 -275 -135 -71 -74 -96 -122 -101 -188
-6 -88 4 -126 44 -169 42 -44 61 -55 140 -81 31 -10 82 -28 112 -40 30 -12 66
-25 80 -29 38 -12 153 -71 173 -90 15 -13 45 -16 149 -18 72 -1 132 -4 135 -6
2 -3 -12 -8 -32 -11 -19 -4 -33 -11 -30 -17 16 -25 -165 -1 -224 30 -12 7 -25
11 -27 8 -2 -2 18 -16 44 -30 126 -68 512 -99 668 -52 60 18 178 94 182 119 5
21 -28 86 -43 86 -5 0 -11 18 -11 39 -2 38 -54 131 -74 131 -5 0 -22 12 -39
26 -17 14 -54 35 -82 45 -49 19 -52 19 -65 2 -9 -12 -13 -13 -14 -5 0 7 -4 11
-9 8 -5 -3 -6 14 -4 38 7 62 -11 108 -68 170 -60 66 -195 136 -308 160 -67 15
-252 20 -321 9z m460 -777 c0 -2 -9 -6 -20 -9 -11 -3 -20 -1 -20 4 0 5 9 9 20
9 11 0 20 -2 20 -4z"/>
<path d="M1620 2575 c0 -8 2 -15 4 -15 2 0 6 7 10 15 3 8 1 15 -4 15 -6 0 -10
-7 -10 -15z"/>
<path d="M1590 2536 c0 -9 5 -16 10 -16 6 0 10 4 10 9 0 6 -4 13 -10 16 -5 3
-10 -1 -10 -9z"/>
<path d="M4840 2541 c0 -5 9 -11 21 -14 16 -4 18 -3 8 9 -13 16 -29 19 -29 5z"/>
<path d="M4777 2523 c-9 -2 -15 -8 -12 -13 6 -10 45 -1 45 11 0 9 -4 10 -33 2z"/>
<path d="M1855 2483 c-3 -21 -10 -48 -15 -60 -5 -11 -6 -24 -3 -27 10 -10 141
-7 148 3 5 10 -1 17 -56 66 -70 61 -67 61 -74 18z"/>
<path d="M4728 2503 c7 -3 16 -2 19 1 4 3 -2 6 -13 5 -11 0 -14 -3 -6 -6z"/>
<path d="M4668 2493 c6 -2 18 -2 25 0 6 3 1 5 -13 5 -14 0 -19 -2 -12 -5z"/>
<path d="M2367 2398 c-3 -23 -14 -52 -24 -66 -20 -27 -88 -52 -144 -52 l-36 0
-2 -51 c0 -28 -4 -55 -7 -61 -4 -6 1 -6 14 1 11 6 59 20 106 31 85 20 154 54
189 93 20 24 20 22 6 50 -13 24 -80 97 -90 97 -4 0 -9 -19 -12 -42z"/>
<path d="M8020 2429 c0 -5 5 -7 10 -4 6 3 10 8 10 11 0 2 -4 4 -10 4 -5 0 -10
-5 -10 -11z"/>
<path d="M8490 2370 c0 -5 4 -10 9 -10 6 0 13 5 16 10 3 6 -1 10 -9 10 -9 0
-16 -4 -16 -10z"/>
<path d="M8363 2349 c-35 -22 -46 -37 -15 -20 22 13 58 40 52 41 -3 0 -20 -10
-37 -21z"/>
<path d="M8455 2360 c-3 -6 1 -7 9 -4 18 7 21 14 7 14 -6 0 -13 -4 -16 -10z"/>
<path d="M7636 2344 c-26 -7 -51 -16 -55 -20 -3 -3 3 -4 14 -1 11 3 37 9 58
13 20 3 40 10 43 15 6 11 3 10 -60 -7z"/>
<path d="M8519 2342 c-75 -50 -99 -68 -99 -75 0 -5 22 7 49 27 27 20 53 36 59
36 5 0 15 7 22 15 17 20 1 19 -31 -3z"/>
<path d="M8410 2340 c0 -5 7 -10 15 -10 8 0 15 5 15 10 0 6 -7 10 -15 10 -8 0
-15 -4 -15 -10z"/>
<path d="M8380 2330 c-9 -6 -10 -10 -3 -10 6 0 15 5 18 10 8 12 4 12 -15 0z"/>
<path d="M1953 2313 c9 -2 25 -2 35 0 9 3 1 5 -18 5 -19 0 -27 -2 -17 -5z"/>
<path d="M8370 2283 c-30 -15 -58 -32 -62 -37 -4 -6 -10 -7 -13 -4 -4 4 -25
-7 -48 -23 -22 -16 -48 -29 -58 -29 -9 0 -19 -4 -21 -8 -6 -14 -79 -52 -89
-47 -5 4 -6 0 -3 -8 3 -9 -3 -17 -18 -20 -13 -4 -32 -13 -43 -22 -17 -13 -15
-13 20 1 22 9 45 20 50 24 6 4 62 34 125 67 63 32 126 66 140 74 14 9 41 26
60 37 49 30 26 27 -40 -5z"/>
<path d="M8355 2234 c-53 -35 -67 -50 -30 -31 45 24 91 57 80 57 -6 0 -28 -12
-50 -26z"/>
<path d="M1993 2243 c9 -2 25 -2 35 0 9 3 1 5 -18 5 -19 0 -27 -2 -17 -5z"/>
<path d="M8128 2204 c-38 -20 -36 -28 2 -9 17 9 30 18 30 20 0 7 -1 6 -32 -11z"/>
<path d="M4868 2180 c-13 -8 -15 -17 -8 -39 7 -24 5 -30 -11 -34 -10 -3 -19
-1 -19 5 0 5 -4 6 -10 3 -17 -10 -12 -38 6 -31 8 3 12 2 9 -4 -4 -6 9 -10 32
-10 36 -1 37 -1 15 -14 -19 -10 -21 -15 -10 -23 20 -16 82 -28 74 -14 -4 6 -3
11 2 11 6 0 12 -7 16 -15 3 -8 11 -15 19 -15 7 0 30 -9 52 -20 22 -11 41 -16
45 -10 3 5 14 8 25 8 34 -2 95 12 95 23 0 6 4 8 8 5 5 -3 9 8 10 24 0 19 -4
30 -13 30 -8 0 -19 9 -25 19 -5 11 -24 23 -42 26 -18 4 -39 12 -45 17 -10 8
-13 6 -13 -6 0 -13 -5 -16 -19 -11 -11 3 -22 1 -26 -4 -3 -7 0 -8 9 -5 9 3 16
2 16 -4 0 -5 -17 -13 -37 -17 -21 -4 -43 -11 -48 -15 -6 -5 -31 -12 -55 -15
-25 -3 -38 -3 -30 1 8 3 22 8 30 11 10 4 1 10 -23 17 -36 11 -38 13 -21 26 11
9 15 10 10 3 -7 -12 16 -18 52 -14 6 1 12 -3 12 -9 0 -6 5 -8 10 -5 6 4 7 11
4 17 -5 8 -1 9 9 5 42 -17 51 -20 45 -12 -4 4 -3 14 3 21 13 15 -2 49 -26 58
-9 3 -13 10 -10 16 8 13 -94 13 -117 0z m82 -51 c-19 -5 -20 -7 -6 -8 11 -1
17 -4 13 -7 -9 -9 -65 6 -70 19 -3 9 9 11 42 8 39 -4 42 -5 21 -12z m55 11 c3
-5 1 -10 -4 -10 -6 0 -11 5 -11 10 0 6 2 10 4 10 3 0 8 -4 11 -10z m-8 -26
c-3 -3 -12 -4 -19 -1 -8 3 -5 6 6 6 11 1 17 -2 13 -5z m79 -59 c-8 -8 -19 -15
-25 -15 -6 0 -8 7 -5 15 4 8 15 15 26 15 17 0 18 -2 4 -15z m61 -11 c-3 -3
-12 -4 -19 -1 -8 3 -5 6 6 6 11 1 17 -2 13 -5z m50 0 c-3 -3 -12 -4 -19 -1 -8
3 -5 6 6 6 11 1 17 -2 13 -5z m-67 -28 c0 -3 -4 -8 -10 -11 -5 -3 -10 -1 -10
4 0 6 5 11 10 11 6 0 10 -2 10 -4z"/>
<path d="M0 2096 l0 -89 117 -119 c112 -113 117 -120 114 -155 -2 -31 2 -41
25 -60 28 -22 28 -23 9 -38 -11 -8 -38 -25 -59 -36 -88 -47 -143 -147 -114
-206 17 -35 91 -73 140 -73 32 0 47 8 88 46 32 30 54 60 60 84 9 35 13 38 66
49 61 12 65 11 115 -35 82 -73 84 -67 -38 -107 -136 -44 -198 -73 -223 -105
-22 -27 -26 -63 -10 -93 25 -45 175 -87 270 -74 25 3 73 7 107 10 70 4 143 24
143 37 0 5 4 7 9 4 10 -7 41 37 41 58 0 16 -55 66 -74 66 -6 0 -17 21 -24 46
-15 54 -27 71 -134 182 -89 93 -77 89 -192 57 -71 -20 -77 -15 -74 65 l3 55
55 -4 c30 -2 65 -7 79 -12 13 -5 26 -7 29 -5 3 3 -1 7 -9 10 -42 13 -51 17
-47 21 2 3 27 -2 54 -9 27 -8 103 -29 169 -46 66 -16 138 -37 160 -45 28 -11
35 -11 24 -3 -9 8 -100 47 -203 88 -174 70 -186 77 -186 101 0 22 -7 28 -42
38 -74 22 -176 81 -215 125 -21 23 -68 76 -104 117 -36 41 -80 90 -97 109
l-31 35 -1 -89z m303 -557 c25 -44 19 -71 -28 -127 -40 -46 -73 -54 -113 -26
-49 34 -12 124 73 176 37 22 43 21 68 -23z m376 -215 c27 -34 26 -63 -2 -105
-35 -54 -96 -79 -190 -79 -85 0 -131 16 -142 50 -13 40 38 75 170 118 81 27
116 37 137 41 4 0 16 -11 27 -25z"/>
<path d="M2456 2162 c-37 -9 -57 -38 -36 -52 13 -8 12 -10 -2 -10 -10 0 -18 6
-18 13 0 9 -10 12 -30 9 -16 -2 -30 -9 -30 -14 0 -6 9 -8 20 -5 11 3 22 2 25
-3 6 -10 82 -50 87 -45 1 2 4 -8 4 -21 l2 -25 -29 31 c-32 32 -64 43 -35 11
23 -25 18 -67 -7 -64 -11 0 -16 -4 -14 -11 3 -8 -10 -12 -44 -11 -28 1 -44 -2
-36 -7 6 -4 26 -8 42 -8 29 -1 29 -2 7 -11 -15 -5 -30 -5 -42 1 -30 16 -47 11
-20 -6 l25 -15 -25 5 c-14 3 -34 6 -45 7 -20 0 -20 0 0 8 16 7 13 9 -18 15
-21 4 -41 14 -44 22 -3 7 -11 14 -18 14 -7 0 -16 6 -18 13 -3 6 -6 2 -6 -10
-1 -13 4 -23 10 -23 6 0 9 -6 7 -12 -6 -18 10 -31 62 -51 63 -24 127 -21 223
8 45 14 107 33 137 43 57 17 120 67 120 96 0 9 -13 30 -30 48 l-29 33 -1 -33
c0 -19 -4 -31 -10 -27 -5 3 -6 13 -3 22 4 11 3 14 -5 9 -7 -4 -12 -1 -12 7 0
38 -93 65 -164 49z m54 -20 c0 -4 -10 -8 -22 -8 -13 0 -33 -4 -45 -8 -14 -4
-23 -3 -23 3 0 10 25 17 68 20 12 0 22 -3 22 -7z m-20 -32 c0 -5 -5 -10 -11
-10 -5 0 -7 5 -4 10 3 6 8 10 11 10 2 0 4 -4 4 -10z m20 -30 c0 -5 -8 -10 -17
-10 -15 0 -16 2 -3 10 19 12 20 12 20 0z m47 4 c-3 -3 -12 -4 -19 -1 -8 3 -5
6 6 6 11 1 17 -2 13 -5z"/>
<path d="M8215 2160 c-25 -10 -101 -60 -91 -60 4 0 37 16 73 35 59 32 70 47
18 25z"/>
<path d="M8040 2150 c-9 -6 -10 -10 -3 -10 6 0 15 5 18 10 8 12 4 12 -15 0z"/>
<path d="M7990 2125 c-7 -8 -16 -15 -21 -15 -11 0 -107 -60 -96 -60 4 0 33 14
63 30 32 18 54 26 54 19 0 -12 15 -3 15 9 0 4 4 13 8 20 11 17 -8 15 -23 -3z"/>
<path d="M9355 2129 c-76 -12 -144 -48 -152 -78 -11 -39 -4 -63 25 -94 102
-109 380 -126 476 -30 76 76 -16 175 -186 203 -71 11 -92 11 -163 -1z"/>
<path d="M1390 2123 c0 -18 20 -66 25 -61 3 3 -1 20 -9 39 -9 19 -15 29 -16
22z"/>
<path d="M2295 2081 c-3 -5 -19 -12 -35 -16 -17 -4 -30 -13 -30 -21 0 -16 -17
-19 -22 -4 -3 10 -48 2 -48 -9 1 -20 86 -79 97 -67 4 3 2 6 -4 6 -6 0 -13 7
-17 15 -5 13 -2 13 17 2 45 -27 157 -3 157 33 0 19 -25 50 -40 50 -5 0 -17 3
-27 6 -15 5 -16 4 -3 -6 13 -10 12 -11 -3 -6 -10 3 -24 6 -30 6 -7 0 -6 4 3
10 9 6 10 10 3 10 -6 0 -14 -4 -18 -9z m-95 -61 c0 -5 -4 -10 -10 -10 -5 0
-10 5 -10 10 0 6 5 10 10 10 6 0 10 -4 10 -10z m76 -11 c19 -22 19 -22 -3 -10
-13 6 -23 16 -23 21 0 15 5 12 26 -11z m61 -15 c-3 -3 -12 -4 -19 -1 -8 3 -5
6 6 6 11 1 17 -2 13 -5z"/>
<path d="M8048 2077 c-16 -6 -28 -14 -28 -18 0 -7 68 17 79 27 8 7 -24 2 -51
-9z"/>
<path d="M1571 2016 c-17 -18 -22 -32 -17 -50 7 -27 11 -29 101 -46 32 -7 69
-19 82 -27 21 -14 23 -13 29 12 5 21 0 33 -27 61 -18 19 -39 34 -46 34 -7 0
-13 4 -13 8 0 8 -57 32 -76 32 -6 0 -21 -11 -33 -24z"/>
<path d="M7826 2013 c10 -40 14 -41 14 -5 0 18 -5 32 -10 32 -6 0 -8 -11 -4
-27z"/>
<path d="M5240 2000 c-8 -5 -12 -11 -9 -14 2 -3 11 -1 19 4 8 5 12 11 9 14 -2
3 -11 1 -19 -4z"/>
<path d="M5200 1980 c0 -5 -12 -10 -27 -11 -27 0 -27 -1 -6 -11 17 -8 26 -8
38 2 17 14 20 30 5 30 -5 0 -10 -4 -10 -10z"/>
<path d="M5928 1973 c6 -2 18 -2 25 0 6 3 1 5 -13 5 -14 0 -19 -2 -12 -5z"/>
<path d="M1412 1915 c-10 -22 -9 -25 8 -25 10 0 31 5 47 11 22 8 25 12 13 18
-41 22 -57 21 -68 -4z"/>
<path d="M9008 1933 c7 -3 16 -2 19 1 4 3 -2 6 -13 5 -11 0 -14 -3 -6 -6z"/>
<path d="M9058 1923 c6 -2 18 -2 25 0 6 3 1 5 -13 5 -14 0 -19 -2 -12 -5z"/>
<path d="M9108 1913 c7 -3 16 -2 19 1 4 3 -2 6 -13 5 -11 0 -14 -3 -6 -6z"/>
<path d="M9180 1896 c0 -2 7 -7 16 -10 8 -3 12 -2 9 4 -6 10 -25 14 -25 6z"/>
<path d="M4465 1880 c-3 -6 1 -7 9 -4 18 7 21 14 7 14 -6 0 -13 -4 -16 -10z"/>
<path d="M7376 1799 c-4 -44 -10 -78 -13 -75 -3 3 -24 -10 -47 -28 -37 -30
-65 -42 -120 -53 -39 -7 -30 -16 12 -10 34 4 44 2 52 -13 15 -28 12 -36 -15
-48 -36 -17 -43 -15 -48 11 -3 14 -4 13 -2 -6 1 -21 -4 -29 -19 -32 -105 -22
-121 -23 -128 -12 -6 9 -8 9 -8 0 0 -8 -14 -13 -34 -13 -57 0 -53 -26 6 -46
83 -27 290 -9 418 37 119 43 191 131 176 214 -11 56 -106 127 -197 149 l-26 6
-7 -81z m-39 -135 c-3 -3 -12 -4 -19 -1 -8 3 -5 6 6 6 11 1 17 -2 13 -5z m-53
-25 c-5 -9 2 -10 22 -6 16 3 23 4 16 1 -6 -3 -10 -10 -7 -15 4 -5 -5 -8 -17
-7 -23 2 -39 38 -17 38 6 0 7 -5 3 -11z"/>
<path d="M8606 1851 c-17 -18 -26 -36 -23 -48 4 -17 5 -17 6 1 0 11 13 33 28
48 15 15 24 28 22 28 -3 0 -18 -13 -33 -29z"/>
<path d="M3550 1850 c-13 -8 -12 -10 3 -10 9 0 17 5 17 10 0 12 -1 12 -20 0z"/>
<path d="M5400 1836 c30 -30 63 -37 68 -15 3 17 -36 39 -71 39 -21 0 -21 0 3
-24z"/>
<path d="M4335 1810 c-27 -16 -46 -30 -42 -30 4 0 31 13 60 30 29 16 48 30 42
30 -5 0 -32 -14 -60 -30z"/>
<path d="M9310 1816 c0 -2 8 -10 18 -17 15 -13 16 -12 3 4 -13 16 -21 21 -21
13z"/>
<path d="M1812 1744 c-1 -107 -9 -137 -50 -176 -53 -50 -123 -74 -322 -112
-14 -3 59 -3 161 0 172 4 338 24 364 43 6 4 35 18 66 30 69 27 122 78 122 117
0 42 -56 85 -158 123 -33 12 -153 41 -171 41 -8 0 -12 -23 -12 -66z"/>
<path d="M3566 1792 c-3 -6 -1 -14 5 -17 15 -10 25 3 12 16 -7 7 -13 7 -17 1z"/>
<path d="M2736 1754 c-3 -9 -6 -30 -6 -48 0 -36 20 -58 85 -96 22 -12 56 -32
75 -43 19 -11 60 -34 90 -50 30 -16 87 -46 125 -67 39 -21 119 -65 179 -99 60
-33 111 -61 112 -61 3 0 142 -77 418 -231 38 -22 71 -39 73 -39 2 0 38 -20 81
-44 42 -24 109 -60 147 -81 39 -20 148 -80 243 -132 95 -52 186 -98 202 -103
45 -13 139 4 221 40 84 37 741 362 894 443 162 85 155 79 155 153 0 77 -11 86
-67 51 -21 -13 -157 -85 -303 -159 -556 -284 -829 -418 -852 -418 -13 0 -32 6
-43 13 -22 16 -61 37 -325 179 -102 55 -198 108 -215 118 -32 18 -71 40 -280
152 -71 39 -134 74 -140 78 -5 4 -73 40 -150 80 -77 40 -144 76 -150 80 -5 4
-44 25 -85 47 -41 22 -164 88 -273 147 -108 58 -199 106 -201 106 -2 0 -7 -7
-10 -16z"/>
<path d="M3610 1740 c-8 -5 -12 -11 -10 -14 3 -2 14 2 24 10 22 15 10 19 -14
4z"/>
<path d="M4114 1735 c-18 -13 -18 -14 4 -8 12 3 25 9 28 14 8 14 -10 11 -32
-6z"/>
<path d="M4570 1740 c-8 -5 -12 -11 -10 -14 3 -2 14 2 24 10 22 15 10 19 -14
4z"/>
<path d="M3658 1733 c7 -3 16 -2 19 1 4 3 -2 6 -13 5 -11 0 -14 -3 -6 -6z"/>
<path d="M2305 1589 c-55 -28 -143 -74 -195 -102 -52 -27 -121 -63 -152 -79
-31 -17 -67 -40 -80 -53 -25 -25 -101 -68 -286 -161 -67 -34 -118 -65 -112
-69 5 -3 16 -3 23 1 6 4 9 4 5 -1 -4 -4 13 -22 39 -39 26 -17 52 -35 58 -40 6
-5 28 3 55 22 64 43 189 102 214 101 15 0 17 -2 6 -6 -43 -17 -122 -57 -180
-92 -36 -22 -110 -65 -166 -95 -85 -47 -141 -86 -122 -86 3 0 88 43 189 95
231 120 657 330 689 340 14 4 90 39 169 76 l144 69 116 -61 c64 -33 120 -65
125 -70 17 -16 1 -19 -28 -4 -40 21 -154 55 -184 55 -28 0 -182 -68 -182 -81
0 -11 44 -40 145 -94 50 -27 117 -63 150 -82 68 -37 87 -39 139 -18 35 15 49
8 24 -12 -7 -6 -141 -76 -298 -156 -397 -202 -653 -341 -658 -355 -6 -19 19
-14 78 16 246 125 807 420 848 446 39 24 181 102 220 120 12 6 25 21 28 34 19
70 -40 117 -215 172 -159 51 -242 97 -418 233 -20 15 -48 27 -62 27 -15 0 -72
-23 -126 -51z"/>
<path d="M7123 1623 c9 -2 23 -2 30 0 6 3 -1 5 -18 5 -16 0 -22 -2 -12 -5z"/>
<path d="M8308 1614 c-49 -15 -98 -62 -98 -94 0 -59 56 -107 165 -141 131 -40
320 -10 356 58 9 16 10 34 3 60 -11 47 -92 107 -165 122 -69 15 -205 12 -261
-5z m27 -202 c-3 -3 -11 0 -18 7 -9 10 -8 11 6 5 10 -3 15 -9 12 -12z m62 12
c-3 -3 -12 -4 -19 -1 -8 3 -5 6 6 6 11 1 17 -2 13 -5z m218 -4 c13 -6 15 -9 5
-9 -8 0 -22 4 -30 9 -18 12 -2 12 25 0z m62 -6 c-3 -3 -12 -4 -19 -1 -8 3 -5
6 6 6 11 1 17 -2 13 -5z m-102 -14 c3 -5 1 -10 -4 -10 -6 0 -11 5 -11 10 0 6
2 10 4 10 3 0 8 -4 11 -10z"/>
<path d="M7033 1613 c9 -2 23 -2 30 0 6 3 -1 5 -18 5 -16 0 -22 -2 -12 -5z"/>
<path d="M7020 1348 c58 -29 158 -88 222 -131 67 -44 127 -77 142 -77 26 0 67
-30 129 -95 42 -44 68 -89 87 -150 7 -22 16 -44 21 -49 5 -6 9 -17 9 -26 0 -9
12 -28 28 -43 59 -57 166 -76 231 -42 39 20 35 31 -4 13 -18 -8 -30 -9 -32 -3
-2 6 -23 9 -48 7 -34 -3 -55 2 -89 22 -39 23 -47 34 -81 119 -55 140 -139 238
-227 267 -21 6 -38 17 -38 24 0 18 29 42 70 58 l35 14 -95 23 c-52 13 -122 29
-155 36 -48 10 -180 47 -293 81 -10 3 30 -19 88 -48z"/>
<path d="M7519 1236 c8 -22 64 -44 111 -45 24 0 24 0 5 14 -11 8 -25 18 -30
23 -6 5 -29 13 -52 19 -40 10 -41 10 -34 -11z"/>
<path d="M2108 1213 c-10 -2 -18 -8 -18 -11 0 -10 134 -95 255 -161 22 -12 63
-35 90 -51 28 -16 58 -30 68 -30 19 0 217 100 217 110 0 3 -16 15 -35 28 -37
23 -65 28 -81 13 -5 -5 -31 -22 -59 -37 -27 -15 -57 -32 -66 -37 -12 -7 -39 5
-110 48 -97 60 -234 136 -240 134 -2 -1 -12 -3 -21 -6z"/>
<path d="M1844 1069 c-3 -6 0 -17 7 -24 19 -19 270 -163 359 -206 l34 -17 93
46 c51 26 93 51 93 57 0 10 -53 49 -82 60 -10 4 -42 -7 -81 -29 -35 -20 -72
-36 -81 -36 -18 0 -65 24 -221 114 -81 47 -109 55 -121 35z"/>
<path d="M1727 993 l-67 -37 37 -19 c21 -11 45 -25 53 -32 8 -7 49 -30 90 -51
41 -21 77 -42 78 -46 2 -5 8 -8 12 -8 5 0 37 -16 70 -36 34 -20 63 -34 64 -32
2 1 9 13 15 26 7 13 21 22 34 21 l22 0 -21 -9 c-12 -5 -25 -14 -29 -20 -14
-23 4 -21 42 4 20 14 43 26 50 26 19 0 15 13 -10 31 -103 75 -347 220 -368
219 -2 0 -34 -17 -72 -37z m48 -3 c4 -6 1 -9 -7 -8 -7 2 -12 -2 -11 -8 1 -7
-6 -10 -19 -6 -20 5 -20 5 3 18 29 16 27 16 34 4z m10 -80 c3 -6 -1 -7 -9 -4
-18 7 -21 14 -7 14 6 0 13 -4 16 -10z m321 -87 c-7 -7 -26 7 -26 19 0 6 6 6
15 -2 9 -7 13 -15 11 -17z m44 -18 c11 -13 8 -15 -19 -15 -31 0 -42 14 -18 23
20 9 24 8 37 -8z"/>
<path d="M1600 910 c0 -5 5 -10 11 -10 5 0 7 5 4 10 -3 6 -8 10 -11 10 -2 0
-4 -4 -4 -10z"/>
<path d="M1640 869 c0 -5 5 -7 10 -4 6 3 10 8 10 11 0 2 -4 4 -10 4 -5 0 -10
-5 -10 -11z"/>
<path d="M1688 843 c7 -3 16 -2 19 1 4 3 -2 6 -13 5 -11 0 -14 -3 -6 -6z"/>
<path d="M1728 833 c7 -3 16 -2 19 1 4 3 -2 6 -13 5 -11 0 -14 -3 -6 -6z"/>
</g>
</svg>
